<?xml version="1.0" encoding="iso-8859-1"?>
<!-- Uploaded to: SVG Repo, www.svgrepo.com, Generator: SVG Repo Mixer Tools -->
<!DOCTYPE svg PUBLIC "-//W3C//DTD SVG 1.1//EN" "http://www.w3.org/Graphics/SVG/1.1/DTD/svg11.dtd">
<svg fill="#000000" height="800px" width="800px" version="1.1" id="Capa_1" xmlns="http://www.w3.org/2000/svg" xmlns:xlink="http://www.w3.org/1999/xlink" 
	 viewBox="0 0 477.08 477.08" xml:space="preserve">
<g>
	<path d="M477.064,203.08c0-10.801-8.759-19.56-19.56-19.56h-40.182c-3.487-11.337-8.061-22.175-13.526-32.48l28.465-28.465
		c3.673-3.673,5.731-8.65,5.731-13.837s-2.066-10.164-5.731-13.837l-50.128-50.106c-7.641-7.64-20.026-7.64-27.667,0l-28.465,28.465
		c-10.303-5.459-21.143-10.024-32.472-13.511V19.575c0-10.809-8.759-19.567-19.568-19.567h-70.86
		c-10.801,0-19.56,8.759-19.56,19.567V59.75c-11.337,3.486-22.184,8.06-32.488,13.518l-28.457-28.458
		c-7.633-7.64-20.025-7.64-27.666-0.008L44.818,94.916c-7.633,7.633-7.633,20.041,0,27.673l28.458,28.458
		c-5.466,10.297-10.04,21.143-13.526,32.472h-40.19C8.759,183.52,0,192.279,0,203.087v70.876c0,10.801,8.759,19.56,19.559,19.56
		h40.182c3.479,11.337,8.052,22.184,13.518,32.478L44.802,354.46c-7.64,7.641-7.64,20.034,0,27.673l50.114,50.114
		c7.64,7.641,20.033,7.641,27.674,0l28.443-28.443c10.311,5.475,21.166,10.049,32.51,13.534v40.167
		c0,10.809,8.759,19.566,19.56,19.566h70.86c10.809,0,19.568-8.757,19.568-19.566v-40.167c11.345-3.486,22.199-8.059,32.51-13.534
		l28.451,28.451c3.673,3.672,8.649,5.729,13.836,5.729c5.187,0,10.165-2.058,13.836-5.729l50.106-50.106
		c7.633-7.641,7.633-20.034,0-27.665l-28.465-28.466c5.474-10.303,10.047-21.158,13.526-32.494h40.182
		c5.187,0,10.165-2.058,13.836-5.731c3.665-3.672,5.731-8.649,5.731-13.836L477.064,203.08z M238.532,362.683
		c-68.446,0-124.134-55.689-124.134-124.143c0-68.446,55.688-124.134,124.134-124.134c68.454,0,124.143,55.688,124.143,124.134
		C362.675,306.994,306.986,362.683,238.532,362.683z"/>
	<path d="M238.532,146.21c-50.912,0-92.329,41.417-92.329,92.329c0,50.914,41.417,92.339,92.329,92.339
		c50.914,0,92.339-41.425,92.339-92.339C330.871,187.627,289.446,146.21,238.532,146.21z"/>
</g>
</svg>